<svg xmlns="http://www.w3.org/2000/svg" width="512" height="512" viewBox="0 0 512 512">
  <title>SnapTally</title>
  <rect width="512" height="512" rx="112" fill="#1d232a"/>
  <g transform="translate(106, 86) scale(12.5)" stroke="#38bdf8" stroke-width="1.75" fill="none" stroke-linecap="round" stroke-linejoin="round">
    <path d="M5 21v-16a2 2 0 0 1 2 -2h10a2 2 0 0 1 2 2v16l-3 -2l-2 2l-2 -2l-2 2l-2 -2l-3 2" fill="#0f172a" fill-opacity="0.6"/>
    <path d="M14 8h-2.5a1.5 1.5 0 0 0 0 3h1a1.5 1.5 0 0 1 0 3h-2.5m2 0v1.5m0 -9v1.5" stroke="#38bdf8" stroke-width="2"/>
  </g>
</svg>
